<?xml version="1.0" standalone="no"?>
<!DOCTYPE svg PUBLIC "-//W3C//DTD SVG 20010904//EN"
 "http://www.w3.org/TR/2001/REC-SVG-20010904/DTD/svg10.dtd">
<svg version="1.0" xmlns="http://www.w3.org/2000/svg"
 width="512.000000pt" height="512.000000pt" viewBox="0 0 512.000000 512.000000"
 preserveAspectRatio="xMidYMid meet">

<g transform="translate(0.000000,512.000000) scale(0.100000,-0.100000)"
fill="#000000" stroke="none">
<path d="M2110 4029 l-744 -378 -654 -1118 c-359 -615 -664 -1137 -678 -1160
l-25 -43 749 0 748 0 678 1535 c373 845 677 1537 675 1539 -2 1 -339 -167
-749 -375z"/>
<path d="M2706 3276 l-388 -883 541 -692 c298 -381 541 -696 541 -702 0 -5
-409 -9 -1070 -9 l-1070 0 0 -145 0 -145 1925 0 c1059 0 1925 2 1925 4 0 2
-441 759 -981 1682 -540 924 -993 1700 -1008 1727 l-28 47 -387 -884z"/>
</g>
</svg>
